<?xml version="1.0" encoding="utf-8"?>
<!-- Generator: Adobe Illustrator 16.0.0, SVG Export Plug-In . SVG Version: 6.00 Build 0)  -->
<!DOCTYPE svg PUBLIC "-//W3C//DTD SVG 1.1//EN" "http://www.w3.org/Graphics/SVG/1.1/DTD/svg11.dtd">
<svg version="1.1" id="图层_1" xmlns="http://www.w3.org/2000/svg" xmlns:xlink="http://www.w3.org/1999/xlink" x="0px" y="0px"
	 width="200px" height="200px" viewBox="0 0 200 200" enable-background="new 0 0 200 200" xml:space="preserve">
<path d="M150.138,137.425c-6.963,0-13.263,2.875-17.8,7.481l-60.382-33.537c1.769-3.432,2.869-7.263,2.869-11.382
	c0-2.456-0.463-4.781-1.125-7.019l59.493-36.944c4.432,3.988,10.231,6.481,16.645,6.481c13.787,0,25-11.212,25-25s-11.213-25-25-25
	c-13.788,0-25,11.212-25,25c0,2.844,0.581,5.538,1.456,8.087l-58.95,36.6c-4.519-4.45-10.7-7.212-17.525-7.212
	c-13.788,0-25,11.212-25,25c0,13.787,11.212,25,25,25c5.012,0,9.668-1.513,13.587-4.063l62.737,34.844
	c-0.594,2.138-1.013,4.337-1.013,6.656c0,13.787,11.213,25,25,25c13.788,0,25-11.213,25-25
	C175.131,148.631,163.932,137.425,150.138,137.425z M149.844,25.006c6.894,0,12.5,5.606,12.5,12.5c0,6.894-5.606,12.5-12.5,12.5
	s-12.5-5.606-12.5-12.5C137.344,30.612,142.95,25.006,149.844,25.006z M37.331,99.987c0-6.894,5.606-12.5,12.5-12.5
	c6.894,0,12.5,5.606,12.5,12.5s-5.606,12.5-12.5,12.5C42.938,112.487,37.331,106.881,37.331,99.987z M150.138,174.925
	c-6.894,0-12.5-5.606-12.5-12.5s5.606-12.5,12.5-12.5s12.5,5.606,12.5,12.5S157.031,174.925,150.138,174.925z"/>
</svg>
