<?xml version="1.0" encoding="utf-8"?>
<!-- Generator: Adobe Illustrator 16.0.0, SVG Export Plug-In . SVG Version: 6.00 Build 0)  -->
<!DOCTYPE svg PUBLIC "-//W3C//DTD SVG 1.1//EN" "http://www.w3.org/Graphics/SVG/1.1/DTD/svg11.dtd">
<svg version="1.1" id="图层_1" xmlns="http://www.w3.org/2000/svg" xmlns:xlink="http://www.w3.org/1999/xlink" x="0px" y="0px"
	 width="200px" height="200px" viewBox="0 0 200 200" enable-background="new 0 0 200 200" xml:space="preserve">
<path d="M100,12.5c-48.25,0-87.5,39.25-87.5,87.5s39.25,87.5,87.5,87.5s87.5-39.25,87.5-87.5S148.25,12.5,100,12.5z M100,174.943
	c-41.325,0-74.944-33.625-74.944-74.943c0-41.325,33.619-74.944,74.944-74.944c41.318,0,74.943,33.619,74.943,74.944
	C174.943,141.318,141.318,174.943,100,174.943z M131.244,100H100V56.263c0-3.469-2.781-6.275-6.25-6.275S87.5,52.8,87.5,56.263
	v49.987c0,3.469,2.788,6.25,6.25,6.25h37.494c3.469,0,6.274-2.781,6.274-6.25S134.713,100,131.244,100z"/>
</svg>
