<?xml version="1.0" encoding="utf-8"?>
<!-- Generator: Adobe Illustrator 16.0.0, SVG Export Plug-In . SVG Version: 6.00 Build 0)  -->
<!DOCTYPE svg PUBLIC "-//W3C//DTD SVG 1.1//EN" "http://www.w3.org/Graphics/SVG/1.1/DTD/svg11.dtd">
<svg version="1.1" id="图层_1" xmlns="http://www.w3.org/2000/svg" xmlns:xlink="http://www.w3.org/1999/xlink" x="0px" y="0px"
	 width="200px" height="200px" viewBox="0 0 200 200" enable-background="new 0 0 200 200" xml:space="preserve">
<path d="M102.818,180.481c-4.093,0-8.625-2.456-13.468-7.294L53.663,137.5H37.5c-10.337,0-18.75-8.412-18.75-18.75v-37.5
	c0-10.337,8.413-18.75,18.75-18.75h16.163l35.668-35.669c4.8-4.8,9.325-7.231,13.45-7.231c4.481,0,9.719,3.056,9.719,11.65v137.5
	C112.5,177.412,107.281,180.481,102.818,180.481z M37.5,75c-3.444,0-6.25,2.806-6.25,6.25v37.5c0,3.45,2.806,6.25,6.25,6.25h18.75
	c1.656,0,3.25,0.656,4.419,1.831l37.512,37.519c0.663,0.656,1.269,1.213,1.819,1.676V33.987c-0.544,0.457-1.163,1.013-1.831,1.682
	l-37.5,37.5C59.5,74.344,57.906,75,56.25,75H37.5z M134.294,142.65c-1.263,0-2.538-0.382-3.644-1.176
	c-2.801-2.012-3.444-5.918-1.432-8.725l2.475-3.388c6.469-8.769,12.057-16.35,12.057-29.362c0-13.481-4.95-20.025-11.219-28.306
	c-1.106-1.457-2.213-2.931-3.307-4.45c-2.012-2.8-1.375-6.706,1.432-8.725c2.807-2.025,6.706-1.375,8.725,1.432
	c1.025,1.431,2.082,2.825,3.119,4.2c6.763,8.938,13.75,18.175,13.75,35.85c0,17.119-7.693,27.563-14.481,36.781l-2.388,3.269
	C138.156,141.75,136.244,142.65,134.294,142.65z M155.557,163.869c-1.463,0-2.938-0.513-4.119-1.551
	c-2.594-2.274-2.856-6.225-0.581-8.818C163.4,139.193,175,122.825,175,100s-11.6-39.2-24.144-53.494
	c-2.275-2.6-2.013-6.544,0.581-8.825c2.581-2.275,6.531-2.019,8.818,0.575C173.725,53.625,187.5,72.969,187.5,100
	s-13.775,46.381-27.244,61.737C159.013,163.15,157.287,163.869,155.557,163.869z"/>
<text transform="matrix(1 0 0 1 -88.5 -8.5)" font-family="'AdobeSongStd-Light-GBpc-EUC-H'" font-size="12">a</text>
</svg>
