<?xml version="1.0" encoding="utf-8"?>
<!-- Generator: Adobe Illustrator 16.0.0, SVG Export Plug-In . SVG Version: 6.00 Build 0)  -->
<!DOCTYPE svg PUBLIC "-//W3C//DTD SVG 1.1//EN" "http://www.w3.org/Graphics/SVG/1.1/DTD/svg11.dtd">
<svg version="1.1" id="图层_1" xmlns="http://www.w3.org/2000/svg" xmlns:xlink="http://www.w3.org/1999/xlink" x="0px" y="0px"
	 width="200px" height="200px" viewBox="0 0 200 200" enable-background="new 0 0 200 200" xml:space="preserve">
<path d="M100.008,12.277l21.675,45.93c3.39,7.122,9.972,12.062,17.61,13.222l48.761,7.316c0,0.005,0.356,0.598,0.012,0.954
	l-35.426,36.11c-5.365,5.443-7.812,13.256-6.559,20.882l8.362,50.991c0.034,0.172,0.034,0.298,0.08,0.401l-43.456-23.894
	c-3.387-1.861-7.225-2.848-11.073-2.848c-3.849,0-7.674,0.986-11.062,2.86l-43.386,23.835c-0.018-0.092-0.011-0.206,0.012-0.344
	l8.362-50.991c1.258-7.627-1.195-15.438-6.548-20.882L11.932,79.693c-0.293-0.298-0.076-0.78-0.132-0.839l48.917-7.426
	c7.65-1.167,14.232-6.112,17.609-13.25L100.008,12.277 M100.008-0.002c-4.147,0-8.288,2.257-10.418,6.765l-21.9,46.395
	c-1.694,3.578-4.962,6.065-8.742,6.64L9.973,67.236c-9.522,1.448-13.324,13.681-6.432,20.7l35.437,36.12
	c2.733,2.78,3.986,6.8,3.336,10.729l-8.362,51.002c-1.292,7.834,4.681,14.209,11.447,14.209c1.779,0,3.618-0.436,5.393-1.412
	l43.806-24.077c1.688-0.931,3.549-1.402,5.399-1.402c1.86,0,3.709,0.472,5.41,1.402l43.8,24.077
	c1.779,0.977,3.607,1.412,5.398,1.412c6.766,0,12.738-6.375,11.453-14.209l-8.375-51.002c-0.643-3.93,0.609-7.949,3.344-10.729
	l35.438-36.12c6.893-7.019,3.09-19.252-6.432-20.7l-48.97-7.438c-3.79-0.574-7.052-3.062-8.753-6.64L110.415,6.763
	C108.279,2.254,104.144-0.002,100.008-0.002L100.008-0.002z"/>
</svg>
