<?xml version="1.0" encoding="utf-8"?>
<!-- Generator: Adobe Illustrator 16.0.0, SVG Export Plug-In . SVG Version: 6.00 Build 0)  -->
<!DOCTYPE svg PUBLIC "-//W3C//DTD SVG 1.1//EN" "http://www.w3.org/Graphics/SVG/1.1/DTD/svg11.dtd">
<svg version="1.1" id="图层_1" xmlns="http://www.w3.org/2000/svg" xmlns:xlink="http://www.w3.org/1999/xlink" x="0px" y="0px"
	 width="200px" height="200px" viewBox="0 0 200 200" enable-background="new 0 0 200 200" xml:space="preserve">
<path d="M186.956,78.969c-0.743-2.219-2.662-3.844-4.981-4.2l-52.8-8.15l-23.594-50.512c-1.024-2.194-3.231-3.6-5.65-3.606
	c0,0-0.006,0-0.012,0c-2.419,0-4.619,1.394-5.65,3.581l-23.8,50.394l-52.875,7.969c-2.319,0.35-4.244,1.962-4.994,4.181
	s-0.194,4.675,1.438,6.35l38.369,39.468l-9.156,55.625c-0.388,2.363,0.606,4.738,2.563,6.119c1.95,1.381,4.525,1.525,6.619,0.375
	l47.231-25.981l47.131,26.144c0.943,0.513,1.987,0.775,3.031,0.775c0.05,0,0.094,0,0.125,0c3.456,0,6.25-2.794,6.25-6.25
	c0-0.775-0.138-1.519-0.394-2.206l-8.77-54.432L185.5,85.306C187.125,83.638,187.693,81.188,186.956,78.969z"/>
</svg>
