<?xml version="1.0" encoding="utf-8"?>
<!-- Generator: Adobe Illustrator 16.0.0, SVG Export Plug-In . SVG Version: 6.00 Build 0)  -->
<!DOCTYPE svg PUBLIC "-//W3C//DTD SVG 1.1//EN" "http://www.w3.org/Graphics/SVG/1.1/DTD/svg11.dtd">
<svg version="1.1" id="图层_1" xmlns="http://www.w3.org/2000/svg" xmlns:xlink="http://www.w3.org/1999/xlink" x="0px" y="0px"
	 width="200px" height="200px" viewBox="0 0 200 200" enable-background="new 0 0 200 200" xml:space="preserve">
<path d="M75,62.5h100c3.456,0,6.25-2.8,6.25-6.25S178.456,50,175,50H75c-3.45,0-6.25,2.8-6.25,6.25S71.55,62.5,75,62.5z M175,93.75
	H75c-3.45,0-6.25,2.8-6.25,6.25s2.8,6.25,6.25,6.25h100c3.456,0,6.25-2.8,6.25-6.25S178.456,93.75,175,93.75z M175,137.5H75
	c-3.45,0-6.25,2.794-6.25,6.25S71.55,150,75,150h100c3.456,0,6.25-2.794,6.25-6.25S178.456,137.5,175,137.5z M25,56.25
	c0,6.903,5.597,12.5,12.5,12.5S50,63.153,50,56.25s-5.597-12.5-12.5-12.5S25,49.347,25,56.25z M25,100c0,6.903,5.597,12.5,12.5,12.5
	S50,106.903,50,100s-5.597-12.5-12.5-12.5S25,93.097,25,100z M25,143.75c0,6.903,5.597,12.5,12.5,12.5s12.5-5.597,12.5-12.5
	s-5.597-12.5-12.5-12.5S25,136.847,25,143.75z"/>
</svg>
