<?xml version="1.0" encoding="utf-8"?>
<!-- Generator: Adobe Illustrator 16.0.0, SVG Export Plug-In . SVG Version: 6.00 Build 0)  -->
<!DOCTYPE svg PUBLIC "-//W3C//DTD SVG 1.1//EN" "http://www.w3.org/Graphics/SVG/1.1/DTD/svg11.dtd">
<svg version="1.1" id="图层_1" xmlns="http://www.w3.org/2000/svg" xmlns:xlink="http://www.w3.org/1999/xlink" x="0px" y="0px"
	 width="200px" height="200px" viewBox="0 0 200 200" enable-background="new 0 0 200 200" xml:space="preserve">
<path d="M146.85,187.5h-92.8c-10.156,0-19.456-7.831-21.188-17.838L19.469,88.506c-0.875-5.094,0.444-10.207,3.625-13.981
	c3.175-3.775,7.987-5.938,13.188-5.938h128.344c5.213,0,10.025,2.169,13.2,5.944s4.487,8.888,3.594,14.025l-13.382,81.063
	C166.294,179.669,156.994,187.5,146.85,187.5z M36.281,81.094c-1.531,0-2.825,0.525-3.631,1.487
	c-0.813,0.963-1.112,2.332-0.856,3.85l13.4,81.157c0.675,3.925,4.819,7.412,8.856,7.412h92.8c4.038,0,8.182-3.494,8.869-7.463
	L169.1,86.475c0.27-1.563-0.031-2.925-0.837-3.888c-0.813-0.962-2.106-1.494-3.638-1.494H36.281z M62.581,118.619
	c-6.9,0-12.506-5.606-12.506-12.5c0-6.894,5.606-12.5,12.506-12.5c6.888,0,12.494,5.606,12.494,12.5
	C75.075,113.006,69.469,118.619,62.581,118.619z M62.581,106.119c0,0-0.012,0-0.019,0.006l0.013,6.244L62.581,106.119z
	 M137.943,118.619c-6.894,0-12.5-5.606-12.5-12.5c0-6.894,5.606-12.5,12.5-12.5c6.895,0,12.5,5.606,12.5,12.5
	C150.443,113.006,144.838,118.619,137.943,118.619z M137.95,106.119c-0.007,0-0.013,0-0.013,0l0.006,6.25L137.95,106.119z
	 M144.2,62.5c-3.456,0-6.25-2.8-6.25-6.25c0-17.888-19.969-31.25-37.832-31.25C81.85,25,62.95,36.663,62.95,56.175
	c0,3.45-2.8,6.25-6.25,6.25c-3.45,0-6.25-2.8-6.25-6.25c0-27.337,25.256-43.675,49.675-43.675c23.807,0,50.331,17.969,50.331,43.75
	C150.45,59.7,147.656,62.5,144.2,62.5z"/>
</svg>
